<?xml version="1.0" standalone="no"?>
<!DOCTYPE svg PUBLIC "-//W3C//DTD SVG 20010904//EN"
 "http://www.w3.org/TR/2001/REC-SVG-20010904/DTD/svg10.dtd">
<svg version="1.0" xmlns="http://www.w3.org/2000/svg"
 width="231.000000pt" height="231.000000pt" viewBox="0 0 231.000000 231.000000"
 preserveAspectRatio="xMidYMid meet">
<metadata>
Created by potrace 1.14, written by Peter Selinger 2001-2017
</metadata>
<g transform="translate(0.000000,231.000000) scale(0.100000,-0.100000)"
fill="#000000" stroke="none">
<path d="M1410 1825 c-8 -2 -55 -9 -105 -15 -140 -19 -195 -49 -363 -196 -29
-26 -50 -33 -121 -44 -47 -8 -91 -15 -97 -16 -6 -1 -37 -5 -69 -9 -33 -3 -62
-8 -65 -10 -3 -1 -25 -6 -50 -9 -25 -3 -72 -11 -105 -16 -33 -6 -85 -13 -115
-16 l-55 -6 23 21 c28 27 29 46 2 31 -15 -8 -20 -8 -20 2 0 23 -20 -15 -20
-39 0 -22 0 -22 -110 -39 -49 -8 -79 -26 -88 -52 -5 -15 -9 -91 -10 -169 0
-139 0 -141 25 -165 l26 -23 -7 105 c-7 103 -9 240 -3 246 8 9 147 41 147 35
0 -5 41 -25 90 -46 93 -38 90 -38 195 -20 17 3 64 10 106 15 41 6 85 12 97 15
12 2 22 0 22 -5 0 -5 -26 -14 -57 -20 -178 -36 -193 -41 -208 -69 -10 -21 -15
-76 -16 -215 -1 -102 0 -189 3 -192 8 -7 137 -39 218 -54 36 -6 76 -14 90 -17
l25 -5 -29 -15 c-44 -23 -96 -19 -301 22 -147 30 -346 115 -422 180 -33 29
-35 33 -23 55 12 23 12 24 -4 11 -19 -16 -17 -43 9 -136 18 -65 67 -120 93
-106 14 8 46 -4 148 -54 80 -40 175 -77 248 -99 96 -27 121 -38 128 -55 8 -24
31 -34 138 -63 108 -29 204 -32 257 -8 l42 19 68 -35 c37 -19 86 -37 108 -40
22 -3 51 -7 64 -9 80 -13 178 103 214 255 l12 52 150 73 c123 60 286 154 377
217 13 10 25 10 51 0 18 -7 52 -12 76 -12 38 0 43 3 56 34 8 18 19 64 25 102
6 38 16 83 22 100 15 42 -14 192 -41 215 -11 9 -25 35 -31 58 -16 60 -47 117
-79 144 -25 21 -162 61 -281 82 -37 7 -435 15 -460 10z m265 -16 c116 -3 135
-7 135 -24 0 -8 -22 -51 -48 -97 -70 -121 -74 -126 -98 -137 -24 -10 -24 -10
-174 12 -120 18 -218 26 -337 27 -127 0 -110 17 81 80 51 17 106 33 121 36 54
10 41 17 -17 10 -81 -10 -73 7 15 33 39 12 104 33 142 45 39 13 72 22 75 20 3
-1 50 -4 105 -5z m292 -28 c19 -2 54 -69 72 -139 24 -96 24 -96 -31 -100 -27
-2 -48 -1 -48 1 0 3 7 20 15 39 19 46 6 58 -61 58 -64 0 -84 -17 -84 -70 0
-37 -2 -39 -35 -46 -20 -3 -38 -5 -40 -2 -2 2 13 52 34 112 44 127 73 157 146
150 11 -1 25 -3 32 -3z m146 -57 c21 -21 77 -147 77 -174 0 -5 -18 -8 -41 -7
l-41 2 -32 95 c-18 52 -36 103 -40 112 -7 16 -5 17 22 7 17 -6 42 -22 55 -35z
m-209 -184 c-21 -8 -37 -3 -29 10 3 4 15 6 27 2 21 -5 21 -6 2 -12z m-1314
-40 c0 -5 -10 -10 -22 -9 -22 0 -22 1 -3 9 11 5 21 9 23 9 1 1 2 -3 2 -9z m47
4 c-3 -3 -12 -4 -19 -1 -8 3 -5 6 6 6 11 1 17 -2 13 -5z m-97 -13 c0 -5 -11
-11 -25 -13 -26 -5 -35 6 -12 15 20 9 37 8 37 -2z m551 -16 c5 4 9 1 9 -4 0
-6 10 -12 23 -12 16 -1 18 -2 5 -6 -10 -2 -18 -8 -18 -13 0 -5 -7 -7 -15 -4
-9 4 -15 0 -15 -7 0 -12 -2 -12 -9 0 -7 10 -13 11 -30 2 -17 -10 -21 -9 -21 4
0 8 7 15 15 15 8 0 15 5 15 10 0 6 6 17 13 24 10 12 13 12 15 0 2 -8 8 -12 13
-9z m-611 5 c0 -5 -17 -12 -37 -15 -21 -4 -51 -11 -67 -16 -17 -5 -35 -5 -45
0 -21 12 -9 17 74 29 33 5 63 10 68 11 4 0 7 -3 7 -9z m1430 1 c0 -12 -39 -21
-45 -11 -3 5 5 11 17 13 13 2 24 5 26 6 1 0 2 -3 2 -8z m-70 -11 c0 -5 -19
-11 -42 -15 -96 -14 -305 -69 -363 -95 -11 -5 -56 -16 -100 -24 -159 -29 -291
-91 -322 -150 l-16 -31 -14 33 c-21 52 -41 39 -63 -40 -7 -26 -16 -46 -20 -43
-14 8 7 93 34 139 51 88 148 130 381 166 72 11 141 22 155 24 43 7 103 15 160
22 30 3 80 9 110 13 75 10 100 10 100 1z m-836 -29 c3 -5 -8 -11 -24 -13 -35
-5 -41 8 -7 15 12 2 23 5 24 6 1 0 4 -3 7 -8z m-144 -20 c0 -5 -9 -11 -20 -14
-11 -3 -20 -1 -20 3 0 5 8 11 18 13 9 3 18 5 20 6 1 0 2 -3 2 -8z m68 4 c-10
-11 -48 -14 -48 -4 0 5 12 9 27 9 14 0 24 -2 21 -5z m1102 -4 c0 -4 -48 -20
-107 -35 -106 -26 -293 -107 -293 -126 0 -5 -9 -14 -20 -20 -20 -11 -20 -10
-7 22 29 71 142 124 322 152 50 8 93 14 98 15 4 0 7 -3 7 -8z m-1240 -21 c-19
-12 -40 -13 -40 -1 0 9 40 20 50 13 2 -2 -2 -7 -10 -12z m1481 -92 c3 -68 -15
-158 -31 -158 -10 0 -14 29 -11 85 4 68 39 129 42 73z m-798 -30 c29 -11 37
-28 12 -28 -9 0 -12 -6 -8 -16 5 -14 2 -16 -22 -10 -84 21 -222 -89 -310 -249
-56 -100 -68 -95 -32 16 78 239 212 345 360 287z m-715 -37 l47 -6 0 -60 c0
-48 -3 -59 -15 -57 -30 7 -136 17 -182 17 l-47 0 5 35 c4 19 10 42 15 51 5 10
3 21 -4 28 -12 13 60 10 181 -8z m-237 -187 l-19 -39 -11 28 c-13 34 -14 40
-2 33 4 -3 17 1 27 9 26 19 27 14 5 -31z m1329 7 c0 -9 -183 -81 -206 -81 -10
0 -11 6 -5 22 5 15 18 23 39 25 23 3 149 34 170 42 1 1 2 -3 2 -8z m-1215 -44
c21 -30 19 -73 -5 -97 -39 -39 -87 -18 -96 42 -5 30 -2 41 19 62 28 28 59 26
82 -7z m801 11 c2 -2 4 -21 6 -41 3 -44 33 -81 44 -53 10 27 24 7 24 -35 0
-25 -4 -38 -12 -36 -16 3 -40 -47 -32 -67 3 -9 10 -14 14 -11 5 3 3 -10 -2
-29 -7 -20 -16 -32 -23 -30 -13 6 -65 -50 -65 -69 0 -7 4 -19 10 -27 6 -10 2
-19 -18 -32 -41 -27 -52 -23 -45 16 7 44 -9 52 -45 21 -26 -21 -31 -23 -42
-10 -10 12 -8 20 9 41 37 47 25 97 -25 106 -18 3 -19 7 -12 34 6 24 15 33 37
37 34 7 43 32 29 87 -9 33 -7 45 6 65 l17 26 30 -33 c28 -29 32 -31 41 -14 5
9 7 28 4 42 -6 22 -4 24 20 20 15 -3 28 -7 30 -8z"/>
<path d="M1428 1723 c7 -3 16 -2 19 1 4 3 -2 6 -13 5 -11 0 -14 -3 -6 -6z"/>
<path d="M1351 847 c-11 -14 -8 -54 5 -66 4 -3 5 1 1 10 -3 9 1 28 8 43 14 27
5 36 -14 13z"/>
<path d="M97 1323 c2 -27 5 -70 8 -98 2 -27 5 -69 5 -92 0 -24 4 -43 9 -43 5
0 7 9 4 20 -3 11 0 20 6 20 6 0 11 -18 11 -44 0 -25 4 -47 9 -50 5 -4 7 7 5
24 -3 17 -1 30 5 30 10 0 16 -38 12 -63 -1 -5 2 -6 7 -3 4 2 7 34 6 70 -1 36
2 66 7 66 10 0 11 -6 13 -90 2 -44 5 -54 18 -52 9 1 19 -5 21 -15 3 -10 4 62
3 159 -1 98 -6 181 -9 185 -4 3 -7 -3 -7 -15 0 -12 -4 -22 -10 -22 -5 0 -10
11 -10 25 0 14 -4 25 -10 25 -6 0 -8 -31 -4 -80 3 -52 1 -80 -6 -80 -5 0 -11
17 -11 38 -1 20 -3 46 -4 57 -1 11 -3 30 -3 42 -2 16 -7 21 -17 17 -9 -4 -15
0 -15 7 0 11 -3 11 -11 -1 -8 -11 -12 -12 -16 -2 -11 27 -20 9 -16 -35z m34
-45 c0 -24 3 -62 5 -85 3 -27 1 -43 -5 -43 -6 0 -11 15 -11 33 0 17 -3 56 -6
85 -4 35 -3 52 5 52 6 0 11 -18 12 -42z m35 -57 c2 -35 -1 -61 -6 -61 -6 0
-10 15 -11 33 0 17 -2 43 -4 57 -3 26 3 45 12 36 3 -2 7 -32 9 -65z m65 32 c0
-21 2 -80 4 -130 2 -53 -1 -93 -6 -93 -5 0 -9 8 -10 18 0 9 -2 68 -5 130 -4
78 -3 112 5 112 6 0 11 -17 12 -37z"/>
<path d="M275 1273 c2 -43 4 -126 5 -185 1 -59 5 -106 9 -104 10 6 2 349 -8
359 -5 5 -7 -26 -6 -70z"/>
<path d="M324 1156 c2 -103 8 -191 11 -194 4 -4 5 77 3 180 -2 103 -7 191 -12
195 -4 4 -5 -77 -2 -181z"/>
<path d="M369 1334 c0 -5 -1 -38 -1 -74 1 -233 3 -312 9 -306 7 7 5 377 -3
385 -2 2 -4 0 -5 -5z"/>
<path d="M412 1175 c1 -85 5 -155 9 -155 4 0 7 70 7 155 -1 85 -5 155 -10 155
-4 0 -7 -70 -6 -155z"/>
<path d="M110 1070 c0 -5 5 -10 10 -10 6 0 10 5 10 10 0 6 -4 10 -10 10 -5 0
-10 -4 -10 -10z"/>
<path d="M415 980 c4 -45 15 -50 13 -6 -1 20 -4 36 -8 36 -4 0 -6 -14 -5 -30z"/>
</g>
</svg>
